<?xml version="1.0" standalone="no"?>
<!DOCTYPE svg PUBLIC "-//W3C//DTD SVG 20010904//EN"
 "http://www.w3.org/TR/2001/REC-SVG-20010904/DTD/svg10.dtd">
<svg version="1.0" xmlns="http://www.w3.org/2000/svg"
 width="1024.000000pt" height="1024.000000pt" viewBox="0 0 1024.000000 1024.000000"
 preserveAspectRatio="xMidYMid meet">

<g transform="translate(0.000000,1024.000000) scale(0.100000,-0.100000)"
fill="#000000" stroke="none">
<path d="M4252 7215 c-2 -261 -1 -282 17 -309 36 -55 90 -69 156 -42 61 26 70
58 70 251 -1 279 -3 285 -112 285 -62 0 -63 -1 -64 -27 -1 -17 -3 -21 -6 -10
-2 9 -13 17 -24 17 -19 0 -26 15 -32 80 -2 19 -4 -91 -5 -245z"/>
<path d="M4697 7476 c-3 -7 -1 -18 5 -24 7 -7 5 -10 -8 -8 -11 2 -19 8 -19 14
0 6 -3 14 -7 18 -4 3 -6 -3 -3 -15 2 -11 0 -21 -5 -21 -5 0 -11 -10 -13 -22
-4 -19 -4 -18 -6 5 0 16 -5 26 -9 23 -5 -3 -12 -188 -16 -410 -7 -371 -6 -408
10 -441 22 -47 57 -69 108 -69 53 1 82 17 106 57 19 30 20 52 18 447 -1 228
-3 387 -5 353 -2 -35 -8 -63 -12 -63 -12 0 -36 30 -25 30 5 0 1 7 -9 14 -12 9
-14 16 -7 21 17 10 2 24 -20 18 -16 -4 -20 0 -20 20 0 20 -4 25 -20 22 -14 -3
-20 2 -20 15 0 23 -16 35 -23 16z"/>
<path d="M5374 7466 c1 -8 5 -18 8 -22 4 -3 5 1 4 10 -1 8 -5 18 -8 22 -4 3
-5 -1 -4 -10z"/>
<path d="M5406 7463 c2 -6 -6 -21 -17 -34 -10 -12 -19 -29 -19 -38 0 -13 -2
-13 -9 -2 -16 25 -21 -57 -27 -450 -6 -356 -5 -388 11 -423 40 -84 149 -86
191 -3 15 29 16 69 10 428 -4 217 -9 402 -10 410 -16 72 -19 79 -38 79 -12 0
-17 4 -12 13 4 6 4 9 -1 5 -4 -4 -15 -2 -23 5 -13 9 -14 9 -8 0 5 -9 0 -13
-13 -13 -12 0 -21 5 -21 11 0 5 4 7 10 4 6 -3 7 1 3 10 -4 12 -8 13 -13 5 -4
-7 -10 -8 -12 -4 -3 5 -3 4 -2 -3z"/>
<path d="M5929 6975 c-5 -571 -4 -558 -81 -715 -84 -173 -234 -279 -440 -311
-130 -20 -315 19 -441 93 -119 70 -196 136 -457 393 -292 287 -397 379 -424
369 -9 -3 -16 -1 -16 6 0 6 6 8 13 5 6 -4 1 3 -13 14 -32 26 -36 26 -44 -1 -4
-18 -8 -20 -18 -10 -10 10 -10 15 2 23 11 7 8 8 -12 3 -15 -3 -81 -7 -146 -8
-83 -1 -125 -6 -136 -15 -9 -7 -16 -10 -16 -6 0 4 -8 1 -17 -6 -16 -13 -17
-12 -4 4 15 20 2 23 -18 5 -11 -10 -13 -10 -7 0 5 8 1 12 -11 12 -11 0 -25 -6
-32 -12 -8 -7 -11 -8 -8 -2 3 6 -4 10 -18 10 -13 0 -21 -4 -19 -8 3 -5 10 -5
16 -2 6 4 8 3 5 -3 -3 -5 -29 -9 -57 -8 -27 1 -50 -1 -50 -5 0 -3 -29 -5 -65
-4 -36 2 -63 -1 -60 -6 3 -5 -7 -5 -23 -1 -43 13 -292 12 -292 0 0 -6 -9 -8
-20 -4 -14 5 -20 2 -20 -9 0 -12 -10 -16 -38 -16 -26 0 -42 -6 -52 -20 -8 -11
-23 -20 -33 -20 -10 0 -16 -4 -12 -9 3 -6 -4 -9 -15 -8 -11 1 -20 5 -20 10 0
5 -12 2 -26 -8 -15 -9 -23 -12 -20 -6 5 7 1 9 -8 5 -9 -3 -16 -10 -16 -15 0
-5 -17 -9 -37 -10 -46 -1 -84 -11 -84 -21 2 -23 -2 -26 -31 -24 -18 2 -41 -1
-52 -6 -13 -7 -16 -7 -12 1 12 19 -23 12 -44 -9 -24 -24 -30 -26 -41 -9 -10
17 -28 -26 -23 -54 1 -10 -1 -15 -7 -12 -5 4 -7 11 -4 16 14 22 -14 7 -29 -16
-16 -24 -45 -37 -30 -13 5 7 3 8 -5 4 -7 -5 -10 -14 -7 -22 3 -9 -1 -14 -13
-14 -10 0 -25 -8 -32 -17 -11 -15 -11 -16 1 -5 8 6 19 12 24 12 6 0 -5 -11
-24 -24 -80 -54 -229 -304 -311 -524 -48 -127 -49 -142 -4 -68 154 257 399
503 626 632 70 39 247 120 284 130 6 1 35 9 66 17 152 41 391 46 522 12 147
-38 287 -108 417 -208 82 -63 263 -245 400 -402 242 -277 405 -422 565 -502
223 -113 488 -128 723 -42 239 87 425 287 511 549 46 140 50 220 44 769 -5
429 -8 511 -20 511 -8 0 -11 5 -8 10 8 13 -14 42 -26 34 -5 -3 -7 -9 -4 -14 3
-5 0 -12 -7 -16 -7 -4 -10 -4 -6 1 4 4 2 15 -5 23 -10 13 -9 14 3 7 8 -4 12
-4 7 0 -12 14 -38 15 -31 2 5 -8 2 -7 -7 1 -7 6 -32 12 -56 12 -37 0 -43 -3
-45 -22 -1 -13 -4 6 -8 42 -3 36 -8 -164 -11 -445z m132 378 c13 -16 12 -17
-3 -4 -10 7 -18 15 -18 17 0 8 8 3 21 -13z"/>
<path d="M3955 7442 c-3 -4 -12 -7 -18 -7 -15 0 -25 -78 -26 -198 -1 -88 -1
-89 33 -123 24 -24 43 -34 64 -34 85 0 124 50 120 152 -1 36 -6 64 -10 62 -5
-3 -8 3 -8 14 0 11 -9 31 -20 45 -11 14 -20 32 -20 40 0 7 -9 22 -21 33 -17
16 -22 16 -29 4 -8 -13 -10 -13 -10 -1 0 8 -3 11 -6 8 -4 -3 -14 -2 -24 3 -10
5 -21 6 -25 2z"/>
<path d="M5697 7438 c-16 -6 -30 -20 -34 -36 -4 -15 -7 -236 -8 -490 l0 -464
24 -19 c32 -26 77 -24 106 6 l25 24 0 466 0 467 -29 29 c-32 31 -41 33 -84 17z"/>
<path d="M7770 7410 c6 -11 13 -20 16 -20 2 0 0 9 -6 20 -6 11 -13 20 -16 20
-2 0 0 -9 6 -20z"/>
<path d="M3525 7402 c-3 -3 -5 -35 -5 -72 0 -53 5 -74 23 -101 40 -60 133 -74
191 -28 28 22 52 91 40 118 -4 9 -6 20 -5 24 0 4 -6 10 -14 13 -8 3 -13 10
-10 14 3 5 1 12 -5 15 -6 4 -9 1 -8 -6 2 -6 -9 -13 -24 -16 -22 -3 -28 0 -28
16 0 10 -7 21 -15 25 -8 3 -15 0 -15 -7 0 -8 -4 -6 -10 3 -9 13 -10 13 -10 0
0 -13 -1 -13 -10 0 -9 13 -10 13 -10 0 0 -13 -1 -13 -10 0 -9 13 -10 13 -10 0
0 -9 -3 -11 -8 -5 -8 11 -48 16 -57 7z"/>
<path d="M6364 7368 c2 -19 -1 -25 -8 -18 -17 17 -36 11 -36 -10 0 -11 -5 -20
-11 -20 -8 0 -8 -4 -1 -13 8 -10 6 -13 -8 -14 -10 -1 -21 6 -23 15 -3 9 -5
-242 -6 -558 -1 -542 0 -577 18 -610 23 -44 75 -80 115 -80 46 0 98 32 123 76
21 36 23 52 23 205 0 323 -14 1013 -21 979 -3 -19 -7 -26 -8 -15 l-2 20 -9
-20 c-7 -17 -9 -16 -10 10 -2 17 -2 33 -2 36 1 3 -6 6 -14 6 -7 0 -14 -8 -14
-18 0 -10 -4 -20 -8 -23 -4 -2 -6 10 -4 28 3 24 -1 35 -12 39 -9 4 -16 2 -16
-3 0 -6 5 -10 10 -10 12 0 13 -37 2 -44 -5 -3 -8 5 -8 17 1 21 -9 25 -43 16
-7 -2 -16 3 -18 11 -4 12 -3 12 5 2 7 -11 10 -10 16 3 8 22 9 21 -13 21 -14 0
-18 -7 -17 -28z"/>
<path d="M6406 7383 c-6 -14 -5 -15 5 -6 7 7 10 15 7 18 -3 3 -9 -2 -12 -12z"/>
<path d="M4972 6877 c-2 -434 0 -493 14 -523 39 -83 156 -85 214 -5 21 30 21
35 17 468 -2 241 -6 449 -9 463 -3 14 -6 30 -7 35 -1 6 -5 4 -10 -3 -7 -12
-11 -12 -22 0 -10 11 -24 12 -68 5 -31 -5 -61 -9 -68 -10 -6 0 -9 -5 -7 -11 3
-7 -7 -13 -20 -14 -22 -1 -25 3 -29 41 -2 23 -4 -178 -5 -446z"/>
<path d="M7810 7348 c0 -2 11 -19 25 -38 14 -19 25 -27 25 -19 0 8 -4 19 -8
24 -9 13 -42 39 -42 33z"/>
<path d="M7868 7288 c-3 -16 6 -45 24 -79 23 -44 27 -48 23 -23 -4 18 -14 53
-24 79 -16 42 -19 45 -23 23z"/>
<path d="M3135 7270 c-3 -6 1 -7 9 -4 18 7 21 14 7 14 -6 0 -13 -4 -16 -10z"/>
<path d="M3208 7273 c6 -2 18 -2 25 0 6 3 1 5 -13 5 -14 0 -19 -2 -12 -5z"/>
<path d="M3346 7233 c-6 -14 -5 -15 5 -6 7 7 10 15 7 18 -3 3 -9 -2 -12 -12z"/>
<path d="M3174 7228 c-3 -5 -10 -6 -15 -3 -5 4 -9 2 -9 -4 0 -17 59 -43 88
-38 l27 4 -27 2 c-16 0 -28 6 -28 12 0 6 7 9 15 5 10 -4 15 1 15 14 0 16 -6
20 -31 18 -17 -1 -33 -6 -35 -10z"/>
<path d="M3255 7231 c-3 -5 -2 -12 3 -15 5 -3 9 1 9 9 0 17 -3 19 -12 6z"/>
<path d="M6830 7216 c-7 -14 -9 -15 -6 -3 3 9 1 17 -4 17 -6 0 -10 -7 -10 -15
0 -11 -12 -15 -42 -15 -24 0 -52 -7 -62 -15 -16 -12 -22 -12 -35 -2 -14 10
-14 10 -3 -5 9 -11 10 -18 2 -23 -32 -19 25 -105 70 -105 12 0 52 14 90 30
137 60 306 33 475 -75 58 -37 176 -127 172 -132 -3 -2 -20 5 -39 17 -62 36
-184 62 -298 63 -89 1 -116 -3 -181 -25 -205 -72 -327 -201 -285 -302 8 -20
28 -42 47 -51 44 -23 87 -10 164 51 246 190 486 156 726 -104 186 -203 343
-520 428 -863 52 -210 63 -311 67 -589 3 -229 1 -272 -20 -425 -45 -310 -136
-607 -271 -880 -229 -465 -565 -843 -968 -1089 -116 -72 -275 -153 -352 -181
-27 -10 -52 -20 -54 -22 -6 -4 191 -203 201 -203 15 0 250 137 338 198 768
530 1264 1320 1394 2223 13 86 27 317 22 349 -3 19 -6 96 -7 170 -1 74 -5 169
-9 210 -5 41 -11 107 -15 145 -27 278 -177 740 -337 1035 -64 117 -149 253
-172 273 -12 10 -15 15 -7 11 8 -4 0 14 -19 39 -35 50 -48 61 -30 26 16 -30 7
-32 -21 -6 -13 12 -27 21 -32 19 -5 -1 -6 2 -3 7 5 8 -11 19 -36 26 -5 2 -11
4 -15 5 -5 1 -20 2 -34 2 -15 1 -26 7 -26 14 0 9 4 11 12 4 8 -7 12 -5 12 4 0
12 -18 14 -124 19 -7 0 -13 8 -13 18 0 15 -10 19 -62 21 -44 2 -62 7 -60 16 1
8 -14 12 -54 12 -35 0 -53 -4 -49 -10 4 -6 11 -7 17 -4 7 5 8 2 3 -6 -6 -10
-12 -9 -24 6 -9 10 -27 20 -41 22 -24 4 -24 3 -5 -11 19 -14 18 -15 -9 -10
-15 3 -30 12 -33 20 -4 10 -9 11 -18 3 -11 -9 -12 -7 -8 9 4 14 -1 23 -13 28
-11 3 -23 11 -27 17 -6 8 -10 7 -14 -1 -8 -20 -23 -15 -23 7 0 13 -7 20 -18
20 -10 0 -24 6 -31 13 -8 6 -11 7 -8 1 4 -7 -7 -11 -29 -12 -29 -1 -35 2 -30
14 5 13 2 15 -14 11 -13 -3 -18 -1 -13 6 4 7 0 8 -11 4 -10 -4 -24 -7 -32 -7
-9 0 -13 -4 -10 -8 3 -5 -1 -9 -9 -9 -8 0 -13 5 -12 10 4 20 -42 13 -53 -7z
m260 -32 c0 -8 -19 -13 -24 -6 -3 5 1 9 9 9 8 0 15 -2 15 -3z m75 -43 c3 -5 2
-12 -3 -15 -5 -3 -9 1 -9 9 0 17 3 19 12 6z m215 -47 c0 -8 -19 -13 -24 -6 -3
5 1 9 9 9 8 0 15 -2 15 -3z m127 -41 c0 -9 -4 -10 -14 -2 -7 6 -13 12 -13 14
0 1 6 2 13 2 8 0 14 -6 14 -14z m64 -46 c-10 -9 -11 -8 -5 6 3 10 9 15 12 12
3 -3 0 -11 -7 -18z"/>
<path d="M3306 7203 c-6 -14 -5 -15 5 -6 7 7 10 15 7 18 -3 3 -9 -2 -12 -12z"/>
<path d="M7536 7058 c3 -5 10 -6 15 -3 13 9 11 12 -6 12 -8 0 -12 -4 -9 -9z"/>
<path d="M7760 7000 c0 -5 5 -10 11 -10 5 0 7 5 4 10 -3 6 -8 10 -11 10 -2 0
-4 -4 -4 -10z"/>
<path d="M2252 6955 c4 -4 4 -13 -1 -19 -10 -14 -22 -46 -16 -46 2 0 10 13 18
30 12 22 12 32 4 37 -7 3 -9 3 -5 -2z"/>
<path d="M2590 6952 c0 -15 -51 -41 -67 -35 -7 3 -14 0 -14 -6 -1 -6 -2 -15
-3 -21 -2 -19 -21 -11 -26 12 -3 13 -11 23 -18 23 -7 0 -17 6 -22 14 -7 12
-11 12 -24 2 -9 -8 -16 -20 -16 -27 0 -8 -4 -14 -9 -14 -19 0 -181 -302 -181
-337 0 -2 53 51 118 118 64 67 116 126 114 131 -1 5 2 7 7 4 4 -3 33 17 62 44
30 28 56 50 59 50 9 0 32 42 26 48 -3 3 -6 0 -6 -6z"/>
<path d="M2610 6949 c0 -5 5 -7 10 -4 6 3 10 8 10 11 0 2 -4 4 -10 4 -5 0 -10
-5 -10 -11z"/>
<path d="M2486 6938 c3 -5 10 -6 15 -3 13 9 11 12 -6 12 -8 0 -12 -4 -9 -9z"/>
<path d="M2179 6826 c-29 -67 -60 -158 -56 -163 3 -3 107 203 107 211 0 2 -7
3 -14 3 -8 0 -25 -23 -37 -51z"/>
<path d="M2111 6634 c0 -11 3 -14 6 -6 3 7 2 16 -1 19 -3 4 -6 -2 -5 -13z"/>
<path d="M2485 6639 c-11 -17 1 -21 15 -4 8 9 8 15 2 15 -6 0 -14 -5 -17 -11z"/>
<path d="M7366 6395 c9 -16 26 -46 37 -67 11 -20 25 -34 30 -31 6 3 7 2 4 -4
-4 -6 13 -55 37 -109 74 -169 137 -387 154 -539 11 -95 7 -440 -7 -545 -27
-217 -106 -492 -182 -642 -22 -44 -23 -41 10 -192 37 -172 24 -375 -33 -544
-28 -81 -110 -244 -171 -337 -47 -73 -202 -228 -308 -306 -173 -130 -384 -226
-609 -280 l-127 -30 61 -51 60 -51 57 13 c140 31 375 135 511 225 96 64 247
194 316 271 177 201 238 326 415 849 139 413 182 583 214 852 14 111 14 166 5
355 -6 123 -17 264 -25 313 -39 246 -155 538 -288 727 -29 43 -57 75 -60 71
-4 -3 -7 0 -7 7 0 8 -10 24 -21 36 -18 19 -25 21 -40 11 -15 -9 -21 -8 -35 8
-12 15 -12 13 2 -10z m54 -20 c0 -8 -7 -15 -15 -15 -9 0 -12 6 -9 15 4 8 10
15 15 15 5 0 9 -7 9 -15z"/>
<path d="M7071 6213 c22 -85 24 -213 3 -282 -22 -74 -60 -134 -177 -279 -129
-160 -159 -219 -165 -327 -3 -59 0 -90 12 -119 9 -21 16 -39 16 -40 0 -2 -28
11 -62 28 -57 28 -72 31 -158 31 -87 0 -106 -4 -225 -45 -118 -41 -138 -45
-221 -45 -83 1 -98 4 -156 33 -65 33 -152 108 -201 172 l-27 35 0 -68 c0 -265
184 -557 425 -672 188 -90 334 -95 593 -19 145 42 179 41 228 -11 48 -51 64
-111 64 -234 0 -218 -65 -376 -197 -480 -95 -75 -165 -96 -296 -88 -102 6
-177 28 -301 88 -44 22 -75 34 -68 27 19 -19 14 -33 -5 -16 -22 17 -75 42 -86
40 -4 -1 -10 5 -13 13 -4 8 -12 15 -18 15 -7 0 -17 5 -24 12 -15 15 -75 21
-66 6 5 -7 2 -8 -7 -2 -20 12 -39 14 -39 3 0 -6 -4 -8 -9 -4 -5 3 -13 0 -17
-6 -4 -7 -3 -9 3 -6 5 3 10 0 10 -8 0 -19 -2 -19 -21 1 -9 8 -16 11 -16 5 0
-14 -27 -14 -35 -1 -4 6 1 7 12 4 15 -5 15 -4 3 4 -9 7 -18 7 -26 1 -8 -7 -17
-5 -27 6 -9 8 -28 15 -43 15 -62 0 -349 142 -649 320 -414 246 -414 247 -720
385 -75 34 -303 104 -425 131 -14 3 -43 10 -65 15 -96 24 -203 38 -249 32 -40
-5 -48 -4 -41 8 8 12 6 12 -8 0 -11 -9 -15 -21 -12 -35 5 -17 4 -18 -4 -6 -10
13 -11 13 -11 0 0 -13 -1 -13 -10 0 -7 10 -10 11 -11 3 -3 -28 -4 -32 -13 -40
-5 -5 -6 -3 -2 5 4 6 2 12 -3 12 -6 0 -3 9 6 19 9 11 20 18 25 15 4 -3 8 -1 8
4 0 5 -21 8 -47 7 -27 -1 -55 3 -63 9 -13 10 -13 9 -1 -7 8 -9 16 -15 19 -12
3 3 12 -1 20 -8 13 -10 14 -9 7 2 -5 10 -4 12 4 7 9 -6 9 -11 0 -22 -11 -13
-111 -16 -134 -3 -5 3 -32 7 -60 8 -27 2 -51 7 -53 12 -2 5 -8 9 -13 9 -6 0
-7 -6 -3 -12 5 -8 0 -7 -11 2 -11 9 -16 10 -11 3 4 -7 3 -13 -1 -13 -5 0 -15
6 -22 13 -9 8 -12 8 -7 0 7 -13 -41 -12 -63 1 -10 6 -12 5 -7 -2 4 -7 1 -12
-9 -12 -9 0 -14 4 -11 9 3 5 -2 15 -12 22 -9 7 -14 9 -10 5 5 -5 -2 -16 -14
-24 -16 -12 -23 -12 -26 -4 -2 7 -13 12 -23 12 -11 0 -18 4 -14 9 9 15 -16 24
-28 11 -9 -10 -9 -11 3 -5 8 5 12 4 7 0 -9 -10 -66 -14 -72 -5 -9 14 -64 1
-101 -24 -62 -40 -163 -160 -205 -242 -33 -63 -39 -85 -39 -135 0 -36 4 -59
11 -59 6 0 30 17 54 38 91 80 227 130 417 152 181 21 386 -14 543 -92 172 -87
299 -198 483 -427 312 -385 493 -575 691 -724 97 -73 280 -191 286 -185 8 8
-36 77 -190 298 -166 239 -216 316 -198 309 6 -2 86 -77 179 -165 419 -400
569 -508 824 -588 400 -127 751 -106 1110 66 293 140 474 343 570 639 40 121
54 238 47 389 -7 152 -31 266 -97 468 -83 251 -82 291 11 487 72 152 89 212
96 336 10 193 -34 376 -147 604 -54 108 -148 243 -176 252 -6 2 -4 -22 7 -64z
m-3476 -1351 c-3 -3 -11 0 -18 7 -9 10 -8 11 6 5 10 -3 15 -9 12 -12z m757
-414 c46 -22 85 -78 94 -135 14 -91 -70 -183 -167 -183 -38 0 -56 6 -90 33
-106 81 -107 211 -2 277 55 36 105 38 165 8z"/>
<path d="M3860 6146 c0 -2 8 -10 18 -17 15 -13 16 -12 3 4 -13 16 -21 21 -21
13z"/>
<path d="M3890 6104 c0 -6 7 -17 15 -24 20 -16 19 -34 -1 -26 -9 3 -21 3 -27
-1 -7 -5 -30 -9 -52 -11 -63 -4 -63 -5 -58 -19 3 -9 -3 -16 -15 -20 -19 -4
-17 -9 21 -70 50 -78 89 -113 126 -113 40 0 79 35 91 82 10 36 9 46 -16 94
-29 57 -83 127 -84 108z"/>
<path d="M3706 6041 c-3 -5 2 -15 12 -22 15 -12 16 -12 5 2 -7 9 -10 19 -6 22
3 4 4 7 0 7 -3 0 -8 -4 -11 -9z"/>
<path d="M3400 5959 c0 -12 -5 -19 -12 -16 -7 2 -24 0 -38 -5 -14 -6 -34 -12
-44 -14 -11 -2 -23 -9 -28 -16 -4 -7 -8 -9 -8 -4 0 5 -7 3 -15 -4 -12 -10 -16
-9 -21 4 -3 9 -11 16 -16 16 -6 0 5 -19 24 -42 53 -66 103 -154 144 -251 39
-94 69 -127 115 -127 71 0 116 58 106 134 -9 61 -60 169 -120 252 -59 83 -87
106 -87 73z m30 -19 c0 -5 -2 -10 -4 -10 -3 0 -8 5 -11 10 -3 6 -1 10 4 10 6
0 11 -4 11 -10z m-53 -15 c0 -8 -4 -12 -9 -9 -5 3 -6 10 -3 15 9 13 12 11 12
-6z m-102 -35 c3 -5 1 -10 -4 -10 -6 0 -11 5 -11 10 0 6 2 10 4 10 3 0 8 -4
11 -10z"/>
<path d="M6722 5955 c-23 -17 -28 -67 -9 -92 14 -19 71 -16 90 5 48 53 -22
128 -81 87z"/>
<path d="M2175 5933 c-30 -33 -109 -160 -155 -253 -46 -91 -86 -216 -112 -345
-33 -160 -32 -506 0 -715 104 -661 398 -1236 882 -1720 488 -488 1153 -827
1805 -919 254 -36 411 -44 704 -38 152 4 301 9 331 12 123 12 230 28 230 35 0
4 -24 26 -53 49 -84 64 -256 247 -327 346 -35 50 -65 91 -66 93 -1 2 -69 14
-151 27 -370 59 -760 220 -1133 468 -177 117 -436 324 -820 652 -223 190 -464
374 -476 363 -15 -15 343 -389 541 -567 443 -397 777 -635 1108 -791 186 -87
464 -192 567 -214 67 -14 -139 8 -232 25 -483 87 -890 271 -1343 609 -442 329
-875 829 -1059 1222 -103 219 -188 495 -231 748 -3 19 -9 127 -12 240 -6 232
4 360 44 509 37 141 38 145 24 137 -6 -4 -9 -12 -6 -17 4 -5 2 -9 -3 -9 -11 0
-56 -91 -84 -170 -33 -96 -97 -373 -106 -466 l-9 -89 -2 130 c-2 219 33 379
124 568 28 59 50 107 49 107 -2 0 -15 -12 -29 -27z"/>
<path d="M2993 5708 c8 -22 0 -26 -56 -29 -40 -2 -47 -6 -48 -23 0 -20 -1 -20
-8 -2 -7 18 -8 18 -14 2 -6 -16 -9 -16 -39 5 l-33 22 29 -31 c16 -17 33 -29
37 -26 4 2 11 -1 15 -7 4 -8 3 -9 -4 -5 -18 11 -14 -3 8 -34 11 -16 36 -60 55
-98 40 -81 74 -103 121 -80 60 28 68 93 25 183 -27 56 -101 160 -88 123z"/>
<path d="M6330 5698 c-93 -64 -92 -201 2 -258 93 -56 218 19 218 132 0 52 -44
122 -86 138 -43 17 -99 12 -134 -12z"/>
<path d="M2767 5699 c7 -7 15 -10 18 -7 3 3 -2 9 -12 12 -14 6 -15 5 -6 -5z"/>
<path d="M4100 5638 c-71 -23 -75 -125 -6 -153 89 -37 154 65 91 143 -9 10
-64 17 -85 10z"/>
<path d="M2390 5536 c-43 -22 -70 -54 -70 -86 0 -12 9 -15 38 -12 89 9 174
-42 228 -136 41 -71 63 -92 99 -92 42 0 72 27 80 73 16 83 -101 230 -207 262
-71 21 -115 18 -168 -9z"/>
<path d="M2859 4913 c-13 -16 -12 -17 4 -4 16 13 21 21 13 21 -2 0 -10 -8 -17
-17z"/>
<path d="M2900 4494 c-95 -16 -143 -30 -200 -59 -103 -52 -129 -92 -80 -123
16 -9 28 -9 62 2 59 19 185 36 266 36 125 0 275 -48 413 -131 201 -121 303
-222 574 -574 240 -310 453 -522 679 -674 104 -70 305 -171 436 -218 111 -40
262 -85 267 -79 2 2 -15 34 -37 73 l-41 70 -107 39 c-207 75 -430 200 -595
334 -201 162 -356 340 -667 771 -41 57 -124 154 -185 215 -213 215 -405 309
-655 319 -58 2 -116 2 -130 -1z"/>
<path d="M2656 4237 c15 -31 28 -41 98 -68 183 -73 357 -172 506 -287 47 -36
216 -195 375 -352 300 -295 401 -387 412 -376 3 3 1 6 -6 6 -7 0 -10 4 -7 9 4
5 0 12 -6 14 -10 4 -10 6 0 6 6 1 12 8 12 16 0 23 16 18 57 -17 21 -18 -21 28
-93 102 -73 74 -192 203 -265 285 -235 265 -394 413 -555 517 -120 77 -307
149 -419 162 -33 4 -75 10 -93 13 l-33 5 17 -35z"/>
<path d="M2750 4104 c25 -26 122 -97 215 -159 155 -102 264 -187 580 -450 182
-151 197 -155 60 -16 -304 311 -498 464 -780 616 -116 62 -127 64 -75 9z"/>
<path d="M5130 3247 c0 -12 205 -417 277 -548 147 -264 284 -432 478 -580 366
-281 874 -374 1243 -228 45 17 81 33 79 35 -1 2 -45 8 -97 15 -308 37 -554
200 -804 531 -138 184 -311 332 -384 329 -50 -1 -132 10 -127 19 3 4 -5 6 -17
2 -16 -4 -19 -2 -13 8 5 8 4 11 -3 6 -6 -4 -19 -2 -29 3 -26 14 -57 24 -66 23
-4 -1 -6 3 -5 10 2 7 -2 12 -9 13 -7 0 -17 5 -22 10 -7 7 1 10 24 10 18 0 31
-4 28 -8 -6 -10 16 -37 29 -37 6 0 4 8 -3 17 -8 10 -9 14 -2 10 6 -4 14 -3 17
2 5 8 -36 30 -65 34 -8 2 -20 7 -28 11 -10 6 -12 5 -7 -2 4 -7 3 -12 -3 -12
-5 0 -12 6 -14 13 -4 7 -6 6 -6 -4 -1 -9 -8 -19 -16 -23 -16 -6 -85 30 -85 45
0 5 -4 8 -8 7 -16 -5 -133 94 -128 108 3 8 0 11 -8 8 -8 -3 -20 3 -27 13 -8
10 -41 38 -74 62 -33 24 -75 58 -92 74 -18 17 -33 28 -33 24z"/>
<path d="M5388 3053 c6 -2 9 -10 6 -15 -4 -7 -2 -8 5 -4 13 9 5 26 -12 25 -9
0 -8 -2 1 -6z"/>
<path d="M5546 2971 c5 -5 20 -12 34 -15 l25 -7 -25 15 c-28 17 -50 21 -34 7z"/>
</g>
</svg>
